<?xml version="1.0" encoding="UTF-8"?>
<svg width="696px" height="144px" viewBox="0 0 696 144" version="1.1" xmlns="http://www.w3.org/2000/svg" xmlns:xlink="http://www.w3.org/1999/xlink">
    <!-- Generator: Sketch 64 (93537) - https://sketch.com -->
    <title>MOZARC</title>
    <desc>Created with Sketch.</desc>
    <g id="Page-1" stroke="none" stroke-width="1" fill="none" fill-rule="evenodd">
        <g id="logo" fill-rule="nonzero">
            <g id="MOZARC">
                <path d="M13.86,141.84 L13.86,85.86 C13.86,58.0199991 13.9800009,41.49 14.22,36.27 C14.4599991,31.05 15.3,27.0599991 16.74,24.3 C18.3000009,21.1800009 20.34,18.63 22.86,16.65 C25.38,14.67 27.7799991,13.68 30.06,13.68 C30.6599991,13.68 31.14,13.7399991 31.5,13.86 C34.5,14.58 37.8599991,15.9899991 41.58,18.09 C45.3000009,20.1900009 48,22.2600009 49.68,24.3 L53.1,28.44 L53.1,121.5 L66.96,121.5 L67.14,75.78 C67.14,71.2200009 67.1700009,65.25 67.23,57.87 C67.2838453,51.2469231 67.3135304,46.5809467 67.3190532,43.872071 L67.32,34.38 C67.32,33.3 67.2899991,32.3400009 67.23,31.5 C67.1700009,30.6599991 67.14,30.0000009 67.14,29.52 L67.14,28.8 C66.78,27.2399991 68.9099991,24.7199991 73.53,21.24 C78.1500009,17.7600009 82.08,15.66 85.32,14.94 C86.2799991,14.7000009 87.12,14.58 87.84,14.58 C89.7600009,14.58 91.7400009,14.9999991 93.78,15.84 C96.4200009,16.92 99.1200009,19.0200009 101.88,22.14 C104.639999,25.2599991 106.079999,27.7799991 106.2,29.7 L106.19955,39.5631 C106.19385,57.4497 106.134001,73.062 106.02,86.4 L105.84,140.58 L121.32,140.58 L121.32,82.7215921 C121.303032,52.2890649 120.883201,34.0152009 120.06,27.9 C119.219999,21.6599991 116.519999,16.1400009 111.96,11.34 C108.120001,7.38 104.459999,4.64999908 100.98,3.15 C97.5,1.65000092 93.1199991,0.9 87.84,0.9 C78.7199991,0.9 70.7999991,3.96 64.08,10.08 L60.84,13.32 L56.16,9.9 C48.1199991,3.54000092 38.8200009,0.36 28.26,0.36 C24.3,0.36 21,1.02000092 18.36,2.34 C11.88,5.81999908 6.84,11.2199991 3.24,18.54 L-1.49213975e-13,24.84 L-1.49213975e-13,141.84 L13.86,141.84 Z" id="M" fill="#E9573F"></path>
                <path d="M204.48,143.1 C222.600001,143.1 237.839999,136.319999 250.2,122.76 C262.560001,109.200001 268.74,92.88 268.74,73.8 C268.74,68.4 268.079999,62.6999991 266.76,56.7 C263.399999,41.94 256.32,29.8200009 245.52,20.34 C234.72,10.8599991 222.060001,5.63999908 207.54,4.68 C206.82,4.68 205.799999,4.64999908 204.48,4.59 C203.160001,4.53000092 202.199999,4.5 201.6,4.5 C199.200001,4.5 197.400001,4.62000092 196.2,4.86 C187.56,6.89999908 180.419999,9.36 174.78,12.24 C164.219999,17.64 155.79,26.0699991 149.49,37.53 C143.19,48.9900009 140.04,61.2599991 140.04,74.34 C140.04,80.82 140.94,87.3 142.74,93.78 C144.419999,100.020001 146.460001,105.330001 148.86,109.71 C151.259999,114.089999 154.560001,118.560001 158.76,123.12 C171,136.44 186.240001,143.1 204.48,143.1 Z M204.3,129.06 C199.499999,129.06 194.819999,128.280001 190.26,126.72 C172.98,120.839999 161.519999,108.239999 155.88,88.92 C154.679999,84.8399991 154.08,80.1599991 154.08,74.88 C154.08,63.36 156.659999,53.1599991 161.82,44.28 C165.299999,38.2800009 170.220001,32.9700009 176.58,28.35 C182.939999,23.7299991 189.300001,20.7599991 195.66,19.44 C200.460001,18.5999991 203.340001,18.18 204.3,18.18 C205.860001,18.18 208.380001,18.54 211.86,19.26 C221.700001,21.06 230.31,25.68 237.69,33.12 C245.07,40.5599991 250.2,49.7399991 253.08,60.66 C254.16,65.2199991 254.7,69.7199991 254.7,74.16 C254.7,83.3999991 252.570001,92.2199991 248.31,100.62 C244.049999,109.020001 238.199999,115.68 230.76,120.6 C221.999999,126.239999 213.179999,129.06 204.3,129.06 Z" id="O" fill="#37BC9B"></path>
                <path d="M380.88,140.94 L380.88,125.82 L344.96928,125.819136 C324.509761,125.805312 314.28,125.6256 314.28,125.28 C314.28,125.040001 326.849999,104.4 351.99,63.36 C377.130001,22.32 389.7,1.62 389.7,1.26 C389.7,0.436799103 374.775385,0.0169679641 344.926152,4.26325641e-14 L296.64,4.26325641e-14 L296.64,15.12 L364.5,15.12 L326.52,76.5 C301.080001,117.9 288.300001,138.839999 288.18,139.32 C288.18,139.440001 288.239999,139.559999 288.36,139.68 C288.480001,139.800001 288.750001,139.890001 289.17,139.95 C289.589999,140.009999 290.129999,140.099999 290.79,140.22 C291.450001,140.340001 292.32,140.430001 293.4,140.49 C294.48,140.549999 295.68,140.610001 297,140.67 C298.319999,140.729999 299.88,140.76 301.68,140.76 C303.48,140.76 305.46,140.790001 307.62,140.85 C309.583636,140.904545 311.795207,140.934297 314.254711,140.94 L380.88,140.94 Z" id="Z" fill="#4A89DC"></path>
                <path d="M424.08,141.84 L424.08,87.48 L467.1,87.48 L467.1,141.84 L482.4,141.84 L482.04,86.4 C481.919999,62.5199991 481.68,47.07 481.32,40.05 C480.96,33.03 480.24,28.1399991 479.16,25.38 C476.519999,18.4199991 472.019999,12.8100009 465.66,8.55 C459.300001,4.28999908 452.399999,2.16 444.96,2.16 C441.599999,2.16 438.48,2.57999908 435.6,3.42 C431.64,4.62000092 428.369999,6.08999908 425.79,7.83 C423.210001,9.57000092 420.420001,12.1800009 417.42,15.66 C415.62,17.82 414.27,19.7699991 413.37,21.51 C412.47,23.2500009 411.66,25.3200009 410.94,27.72 C410.22,30.1199991 409.77,34.2300009 409.59,40.05 C409.41,45.8699991 409.260001,52.02 409.14,58.5 C409.027058,64.5988235 408.967266,73.8334264 408.96,86.2038064 L408.96,141.84 L424.08,141.84 Z M467.1,73.62 L424.08,73.62 L424.080973,52.2888806 C424.094278,44.4073021 424.243953,39.0076744 424.53,36.09 C424.830001,33.03 425.52,30.42 426.6,28.26 C430.680001,20.5799991 436.739999,16.74 444.78,16.74 C448.619999,16.74 452.280001,17.6999991 455.76,19.62 C459.480001,21.5400009 462.299999,24.3599991 464.22,28.08 C465.539999,30.6 466.349999,33.1500009 466.65,35.73 C466.950001,38.3099991 467.1,44.28 467.1,53.64 L467.1,73.62 Z" id="A" fill="#F6BB42"></path>
                <path d="M514.44,141.84 L514.440816,141.084898 C514.451701,135.931156 514.571429,128.382857 514.8,118.44 C515.039999,108 515.16,100.139999 515.16,94.86 C537.960001,115.74 554.999999,131.4 566.28,141.84 L583.38,141.84 L532.98,91.44 L538.56,90 C552.6,86.2799991 562.559999,78.0600009 568.44,65.34 C570.000001,62.1 570.96,59.4 571.32,57.24 C571.68,55.08 571.86,51.48 571.86,46.44 C571.739999,38.7599991 570.929999,32.6399991 569.43,28.08 C567.930001,23.5200009 565.2,19.3199991 561.24,15.48 C556.56,10.9200009 551.640001,7.79999908 546.48,6.12 C541.319999,4.44000092 533.399999,3.42 522.72,3.06 C519.600001,2.93999908 516.000001,2.88 511.92,2.88 C507.24,2.88 504.18,3.6 502.74,5.04 C501.780001,6.24000092 501.179999,10.38 500.94,17.46 C500.712001,24.1859991 500.5923,41.6878499 500.5809,69.96555 L500.58,141.84 L514.44,141.84 Z M522.72,77.4 L514.44,77.4 L514.44,16.74 L522.36,16.74 C539.159999,16.74 550.020001,21.7200009 554.94,31.68 C556.619999,34.92 557.46,39.42 557.46,45.18 C557.46,52.8600009 556.079999,58.8000009 553.32,63 C547.320001,72.5999991 537.12,77.4 522.72,77.4 Z" id="R" fill="#3BAFDA"></path>
                <path d="M656.1,141.3 C659.219999,141.3 662.999999,140.880001 667.44,140.04 C673.56,138.839999 679.77,136.53 686.07,133.11 C692.37,129.69 695.52,126.959999 695.52,124.92 C695.52,124.079999 694.17,122.250001 691.47,119.43 C688.77,116.609999 687.06,115.2 686.34,115.2 C685.859999,115.2 683.760001,116.46 680.04,118.98 C673.320001,123.899999 665.580001,126.36 656.82,126.36 C647.699999,126.36 639.779999,123.719999 633.06,118.44 C630.419999,116.400001 627.57,112.41 624.51,106.47 C621.45,100.53 619.619999,95.2799991 619.02,90.72 C618.3,85.68 617.94,80.7600009 617.94,75.96 C617.94,62.64 620.339999,50.6399991 625.14,39.96 C629.940001,29.2800009 636.3,22.14 644.22,18.54 C648.18,16.6199991 652.559999,15.66 657.36,15.66 C664.56,15.66 672.719999,17.9400009 681.84,22.5 C685.920001,24.5399991 688.14,25.56 688.5,25.56 C688.86,25.56 690.179999,23.7000009 692.46,19.98 C694.020001,17.2200009 694.8,15.3599991 694.8,14.4 C694.8,13.0800009 693.930001,11.88 692.19,10.8 C690.449999,9.72 687.24,8.28 682.56,6.48 C678.119999,4.68 674.519999,3.54000092 671.76,3.06 C669.000001,2.57999908 664.74,2.21999908 658.98,1.98 L655.02,1.98 C647.940001,1.98 643.5,2.39999908 641.7,3.24 C635.22,5.76 629.1,10.0499991 623.34,16.11 C617.58,22.1700009 613.200001,29.0399991 610.2,36.72 C605.759999,47.7599991 603.54,60.3599991 603.54,74.52 C603.54,90.48 606.360001,103.98 612,115.02 C616.199999,123.179999 622.26,129.6 630.18,134.28 C638.1,138.96 646.74,141.3 656.1,141.3 Z" id="C" fill="#967ADC"></path>
            </g>
        </g>
    </g>
</svg>