<?xml version="1.0" encoding="UTF-8"?>
<svg width="682px" height="143px" viewBox="0 0 682 143" version="1.1" xmlns="http://www.w3.org/2000/svg" xmlns:xlink="http://www.w3.org/1999/xlink">
    <!-- Generator: Sketch 64 (93537) - https://sketch.com -->
    <title>MOZARC</title>
    <desc>Created with Sketch.</desc>
    <g id="Page-1" stroke="none" stroke-width="1" fill="none" fill-rule="evenodd">
        <g id="logo" fill-rule="nonzero">
            <g id="MOZARC">
                <path d="M11.7987552,138 L11.799784,81.3553289 C11.8100736,61.5301503 11.8975679,48.5594022 12.0632342,42.4169365 C12.1616165,38.7691444 12.3385342,36.1318063 12.6123697,34.4396183 C12.734675,33.6838181 12.8656812,33.1159892 13.079154,32.6571431 C13.2160207,32.3629599 13.528432,31.7647059 14.2641667,31.7647059 C14.6903062,31.7647059 14.8992324,31.9269643 15.1101229,32.0595192 C15.3884942,32.2344926 15.691275,32.4725081 16.060185,32.7897653 C16.8862541,33.5001714 18.0295955,34.61104 19.5211293,36.1446991 C22.8737036,39.5919531 27.9683797,45.1666771 34.8214845,52.8844326 C41.5305158,60.3908279 46.6804062,65.8431756 50.247778,69.2238303 C53.0498329,71.8792258 54.9374378,73.1306466 55.3669899,73.2352941 L55.3669899,73.2352941 L55.4717593,73.2352941 C55.5042758,73.2352941 56.0068333,73.0907754 56.759983,72.5805332 C57.6830183,71.9552011 58.9638766,70.8870015 60.5583877,69.3943903 C64.1500749,66.0322373 69.3484053,60.5207681 76.1217252,52.8847827 C82.9765362,45.1651046 88.1273886,39.5879678 91.5954591,36.1345664 C93.138534,34.5980153 94.3448606,33.4829084 95.2520341,32.7662739 C95.9480886,32.2164163 96.4624531,31.7647059 97.2076545,31.7647059 C98.0470354,31.7647059 98.26039,32.5252048 98.3983772,33.0972559 C99.3131336,36.8895291 99.7446526,54.3101322 99.8491614,85.9381983 L99.8491614,85.9381983 L100.022336,138 L112,138 C111.992806,112.184999 111.330478,30.0470696 111.297091,2.00149159 L111.295844,0.352941176 L108.830309,0.352941176 C108.12442,0.352941176 105.791057,1.79338882 102.315331,5.2173803 C98.887338,8.59434599 92.0456588,16.0075298 81.83808,27.4122916 C72.8359008,37.4792929 66.2439324,44.7860547 62.0566796,49.3384364 C60.195134,51.3623065 58.8100598,52.8407054 57.8916893,53.7831681 C57.1272162,54.567697 56.8848008,54.9876709 56.2783552,55.1902421 C56.1629529,55.2287912 56.0584575,55.2397048 55.9699046,55.2397048 C55.4562898,55.2397048 55.2652622,55.0215427 55.0450609,54.8645002 C54.7434034,54.6493647 54.3867815,54.3463467 53.9367215,53.935116 C52.9280139,53.0134331 51.4674729,51.5513036 49.5311162,49.5292969 C45.177076,44.9826696 38.4313928,37.6144921 29.2821387,27.4129594 C19.6617123,16.5966447 12.9095425,9.27293216 9.06786229,5.48151532 C5.18517986,1.64963217 2.53985722,0 1.58490741,0 C1.29644343,0 1.04039375,0.0823651482 0.76127008,0.318867403 C0.741855888,0.438911887 0.714810375,0.634064618 0.691653073,0.875987333 C0.257619575,5.4102957 0.0195029211,26.817589 0.00114804237,64.8635009 L0,138 L11.7987552,138 Z" id="M" fill="#E9573F"></path>
                <path d="M195.6759,141 C209.436511,141 221.958659,136.621937 233.310196,127.825769 C244.646609,119.041321 252.452661,107.162187 256.747249,92.1021098 C258.233856,87.1562816 259,80.4968053 259,72.1769231 C259,65.1607255 258.360405,58.9214145 257.091325,53.4617114 C254.892754,45.2053569 251.017373,37.2302555 245.447541,29.5272068 C239.875853,21.821588 233.689154,15.9565891 226.890172,11.8998414 C216.698649,5.95904764 205.784382,3 194.092798,3 C190.970815,3 188.270052,3.23359645 185.998647,3.69051995 C170.249721,6.60237802 157.339302,14.4677907 147.201624,27.3446705 C137.063661,40.221912 132,55.1973317 132,72.3538462 C132,84.4778094 134.83582,96.0087688 140.520046,106.976607 C143.308977,112.470023 146.236722,116.924337 149.276971,120.328446 C152.318498,123.733983 156.333075,127.079918 161.326658,130.350462 C171.862622,137.454096 183.301417,141 195.6759,141 Z M195.5,128.969231 C181.760322,128.969231 169.724745,123.382899 159.499881,112.321276 C149.266742,101.250703 144.137119,87.8916478 144.137119,72.3538462 C144.137119,62.7623833 146.581869,53.3035426 151.447446,43.9932519 C154.650824,37.7879076 158.372419,32.6885351 162.623786,28.7135809 C166.882223,24.7320153 172.331889,21.3830841 178.973788,18.6392997 C183.788471,16.5811597 189.244444,15.5615385 195.3241,15.5615385 C202.3543,15.5615385 208.884662,16.8881322 214.865038,19.5347973 C224.179258,23.8586655 231.906475,30.9524153 238.021659,40.7458322 C244.138893,50.5425265 247.214681,60.856103 247.214681,71.6461538 C247.214681,84.4406381 243.579089,96.0426896 236.324501,106.38975 C229.068712,116.738524 219.681672,123.629899 208.233603,126.988333 C203.712943,128.304554 199.469459,128.969231 195.5,128.969231 Z" id="O" fill="#37BC9B"></path>
                <path d="M369.757181,138 L369.757181,124.980595 L334.656868,124.979249 C317.433872,124.965059 307.885074,124.837812 305.710445,124.556214 C305.266249,124.498693 304.540865,124.408021 304.540865,123.573092 C304.540865,123.092277 304.591651,123.243893 304.700907,123.040223 C305.113189,122.271663 305.411362,121.808354 306.106165,120.649297 C307.30909,118.642594 309.260634,115.42329 311.96274,110.988095 C318.042218,101.009346 327.919879,84.8777732 341.596635,62.5918776 C363.316751,27.1995531 375.464849,7.26615308 378,2.86328662 C374.182989,2.32459223 359.236536,2 333.623817,2 L333.623817,2 L289.029957,2 L289.029957,15.0194049 L356.180465,15.0194049 L318.157859,76.3558615 C295.876224,112.549746 283.778593,132.461414 281,137.047045 C282.282758,137.232347 283.316071,137.466728 285.025543,137.561527 C287.642934,137.70667 290.014299,137.824062 293.083947,137.824062 C297.381677,137.824062 301.384249,138 306.127207,138 L306.127207,138 L369.757181,138 Z" id="Z" fill="#4A89DC"></path>
                <path d="M410.746563,143 L410.746563,87.2821159 L456.856207,87.2821159 L456.856207,143 L470,143 L469.654717,85.8769982 C469.537881,57.7934802 469.302065,40.9052169 468.95514,35.3227302 C468.608305,29.7416962 467.730035,25.6090292 466.415621,22.9652019 C462.634008,15.128314 457.176273,9.59041628 450.003498,6.26981821 C445.354748,4.10322313 439.695509,3 433.012437,3 C429.446413,3 426.423023,3.34901809 423.95127,4.02698069 C418.248554,5.63285293 413.281277,8.57393917 408.999452,12.8801978 C404.714613,17.1894939 401.789264,22.134671 400.193658,27.7511707 C399.483315,30.2005284 399,50.4910427 399,87.8110831 L399,87.8110831 L399,143 L410.746563,143 Z M456.856207,75.4685139 L410.746563,75.4685139 L410.746563,54.7571144 C410.760906,43.0472736 411.092134,35.5951438 412.189295,32.1803889 C414.044335,26.4068602 418.842545,19.9387283 423.871868,17.5428221 C426.253196,16.4083868 429.244047,15.8715365 432.837115,15.8715365 C438.680143,15.8715365 443.408645,17.0564019 446.992735,19.5422961 C451.222883,22.3379707 453.986561,25.9006301 455.159307,30.183861 C456.318992,34.4193764 456.856207,42.2859267 456.856207,53.9571788 L456.856207,53.9571788 L456.856207,75.4685139 Z" id="A" fill="#F6BB42"></path>
                <path d="M502.133121,140 C502.154248,130.764796 502.841929,101.701657 502.841929,92.8050314 L502.841929,92.8050314 L502.841929,90.7711519 C522.272382,108.869777 540.50154,125.628828 556.253101,139.83095 L556.253101,139.83095 L564.430171,140 C567.447741,140 569.664001,139.959382 571,139.893256 C563.375697,131.933384 532.169715,101.239764 519.995505,89.2427529 C522.664368,88.3839668 525.270218,87.5448232 527.965414,86.6779946 C549.877958,80.2008767 560.694093,65.8670927 560.694093,43.3207547 C560.694093,42.6094142 560.518731,40.3385985 560.516668,39.6461185 C560.16404,32.7986669 559.049246,27.2384029 557.21565,22.9738447 C555.382763,18.7109417 552.399788,14.8002481 548.204987,11.2151777 C544.044771,7.43087097 539.200536,4.71090948 533.6409,3.04430845 C528.076988,1.376423 520.756176,0.410105195 511.703158,0.176100629 C510.208585,0.176097942 505.00928,0 503.551772,0 C498.708239,0 496.034702,0.307227561 495.249254,0.502084024 C493.401701,0.960433096 492.164516,1.75199113 491.008777,2.77144061 C490.854864,2.90720545 490.42092,3.75857525 490.117615,5.37137551 C489.745467,7.35025581 489.485065,10.339866 489.354437,14.2934724 C489.13211,21.0224855 489.013725,38.715783 489.001125,67.3280709 L489,140 L502.133121,140 Z M502.132087,76.6666244 L502.132087,12.679248 L512.069882,12.679248 C533.143758,12.679248 545.400367,21.0771031 548.082298,37.8921605 C548.216604,38.6918254 548.271852,39.8321238 548.271852,41.3836505 L548.271852,41.3836505 C548.271852,48.3112148 546.881395,54.5650094 544.093019,60.0990232 C539.165231,69.6345702 528.783267,74.8304336 513.373935,75.8972671 L513.373935,75.8972671 L502.132087,76.6666244 Z" id="R" fill="#3BAFDA"></path>
                <path d="M644.411178,139 C647.376225,139 651.017269,138.59608 655.313056,137.778493 C661.186712,136.619892 667.157543,134.387497 673.238604,131.066562 C676.617845,129.22112 679.033773,127.586725 680.452857,126.233913 C681.609234,125.131539 682,124.285135 682,123.803665 C682,123.803665 681.875621,123.352188 681.376819,122.632955 C680.77271,121.761871 679.73784,120.544406 678.291807,119.025052 C676.016312,116.634177 674.416142,115.350316 673.940181,115.161592 C673.395907,115.372803 671.378075,116.582892 668.277392,118.695478 C661.570844,123.630851 653.826016,126.100785 645.113772,126.100785 C636.039181,126.100785 628.102168,123.445942 621.386202,118.137483 C618.622327,115.988959 615.815383,111.976984 612.803567,106.095475 C609.78699,100.204663 607.960917,94.965047 607.356841,90.3465345 C606.648738,85.360113 606.295409,80.4979322 606.295409,75.7408377 C606.295409,62.5571091 608.657951,50.6491041 613.398096,40.0390586 C618.13598,29.4340794 624.473761,22.2217132 632.445807,18.5727783 C636.433739,16.629576 640.841293,15.6623037 645.640719,15.6623037 C652.855025,15.6623037 660.941512,17.9531391 669.920852,22.4697225 C673.005337,24.0212106 675.053016,24.9803537 675.837838,25.2887564 C676.284644,24.7341509 677.49931,23.0226321 679.13472,20.3392763 C680.635555,17.6659371 681.297405,15.8656766 681.297405,15.3089005 C681.297405,14.4501119 680.750977,13.5154373 679.166523,12.5260881 C677.57219,11.5305725 674.459062,10.1165151 669.916701,8.35898207 C665.617891,6.60577387 662.133579,5.50065297 659.54134,5.04712721 C656.923872,4.58918768 652.793801,4.23474918 647.202946,4 L647.202946,4 L643.357285,4 C636.366056,4 632.249764,4.56193666 630.677141,5.17717823 C624.493993,7.59614767 618.629073,11.7225834 613.079677,17.5960044 C607.535033,23.4643995 603.32591,30.1064842 600.439148,37.5408922 C596.154945,48.257356 594,60.5202337 594,74.3272251 C594,89.8906495 596.734752,103.000994 602.159863,113.684014 C606.185736,121.552591 611.97143,127.717768 619.563611,132.230949 C627.159597,136.746392 635.427946,139 644.411178,139 Z" id="C" fill="#967ADC"></path>
            </g>
        </g>
    </g>
</svg>